<svg width="600" height="600" viewBox="0 0 600 600" fill="none" xmlns="http://www.w3.org/2000/svg">
<path fill-rule="evenodd" clip-rule="evenodd" d="M457.031 0C543.75 0 600 56.25 600 142.969V457.031C600 543.75 543.75 600 457.031 600H142.969C56.25 600 0 543.75 0 457.031V142.969C0 56.25 56.25 0 142.969 0H457.031Z" fill="url(#paint0_linear_1395_333)"/>
<path fill-rule="evenodd" clip-rule="evenodd" d="M390.041 119.014C415.617 118.875 448.329 124.212 486.91 153.927V387.474C486.91 387.474 489.399 410.444 468.206 397.538C447.025 384.632 357.697 334.956 303.316 434V176.225C303.316 176.225 328.233 119.351 390.041 119.014ZM295.683 176.213C295.683 176.213 270.767 119.34 208.959 119.003C183.382 118.863 150.67 124.201 112.09 153.915V387.462C112.09 387.462 109.6 410.432 130.794 397.526C151.975 384.62 241.302 334.945 295.683 433.989V176.213Z" fill="white"/>
<path fill-rule="evenodd" clip-rule="evenodd" d="M234.104 164.01C215.612 163.909 191.96 167.773 164.065 189.281V358.324C164.065 358.324 162.265 374.95 177.589 365.608C192.903 356.267 257.489 320.311 296.808 392V205.42C296.808 205.42 278.793 164.254 234.104 164.01ZM302.327 205.411C302.327 205.411 320.343 164.246 365.031 164.002C383.524 163.901 407.176 167.764 435.07 189.272V358.315C435.07 358.315 436.871 374.941 421.547 365.6C406.232 356.259 341.646 320.303 302.327 391.992V205.411Z" fill="#D6A975"/>
<path d="M221.536 533.864C216.032 533.864 211.744 532.712 208.672 530.408C205.664 528.104 203.552 525 202.336 521.096C201.184 517.192 200.608 512.84 200.608 508.04V480.584C200.608 475.336 201.184 470.76 202.336 466.856C203.552 462.952 205.664 459.944 208.672 457.832C211.744 455.656 216.032 454.568 221.536 454.568C226.4 454.568 230.24 455.464 233.056 457.256C235.936 459.048 237.984 461.608 239.2 464.936C240.48 468.264 241.12 472.264 241.12 476.936V483.08H230.848V477.608C230.848 474.728 230.688 472.2 230.368 470.024C230.112 467.784 229.344 466.056 228.064 464.84C226.784 463.624 224.64 463.016 221.632 463.016C218.56 463.016 216.32 463.688 214.912 465.032C213.504 466.312 212.576 468.168 212.128 470.6C211.744 472.968 211.552 475.752 211.552 478.952V509.768C211.552 513.672 211.872 516.776 212.512 519.08C213.152 521.32 214.208 522.92 215.68 523.88C217.152 524.84 219.136 525.32 221.632 525.32C224.576 525.32 226.688 524.68 227.968 523.4C229.248 522.056 230.048 520.232 230.368 517.928C230.688 515.624 230.848 512.936 230.848 509.864V504.104H241.12V509.864C241.12 514.6 240.544 518.792 239.392 522.44C238.24 526.024 236.256 528.84 233.44 530.888C230.624 532.872 226.656 533.864 221.536 533.864ZM251.454 533V455.24H262.302V488.84H282.27V455.24H293.118V533H282.27V496.616H262.302V533H251.454ZM323.603 533.864C319.123 533.864 315.379 532.904 312.371 530.984C309.427 529.064 307.187 526.408 305.651 523.016C304.115 519.624 303.219 515.688 302.963 511.208L312.563 508.616C312.755 511.368 313.171 514.024 313.811 516.584C314.515 519.144 315.635 521.256 317.171 522.92C318.707 524.52 320.851 525.32 323.603 525.32C326.419 525.32 328.531 524.552 329.939 523.016C331.411 521.416 332.147 519.144 332.147 516.2C332.147 512.68 331.347 509.864 329.747 507.752C328.147 505.576 326.131 503.4 323.699 501.224L310.643 489.704C308.083 487.464 306.195 485.032 304.979 482.408C303.763 479.72 303.155 476.424 303.155 472.52C303.155 466.824 304.787 462.408 308.051 459.272C311.315 456.136 315.763 454.568 321.395 454.568C324.467 454.568 327.155 454.984 329.459 455.816C331.827 456.584 333.779 457.8 335.315 459.464C336.915 461.128 338.163 463.24 339.059 465.8C340.019 468.296 340.659 471.24 340.979 474.632L331.763 477.128C331.571 474.568 331.187 472.232 330.611 470.12C330.035 467.944 329.011 466.216 327.539 464.936C326.131 463.592 324.083 462.92 321.395 462.92C318.707 462.92 316.595 463.656 315.059 465.128C313.587 466.536 312.851 468.648 312.851 471.464C312.851 473.832 313.235 475.784 314.003 477.32C314.835 478.856 316.147 480.424 317.939 482.024L331.091 493.544C334.035 496.104 336.627 499.176 338.867 502.76C341.107 506.28 342.227 510.472 342.227 515.336C342.227 519.176 341.427 522.504 339.827 525.32C338.227 528.072 336.019 530.184 333.203 531.656C330.451 533.128 327.251 533.864 323.603 533.864ZM368.978 533.864C364.498 533.864 360.754 532.904 357.746 530.984C354.802 529.064 352.562 526.408 351.026 523.016C349.49 519.624 348.594 515.688 348.338 511.208L357.938 508.616C358.13 511.368 358.546 514.024 359.186 516.584C359.89 519.144 361.01 521.256 362.546 522.92C364.082 524.52 366.226 525.32 368.978 525.32C371.794 525.32 373.906 524.552 375.314 523.016C376.786 521.416 377.522 519.144 377.522 516.2C377.522 512.68 376.722 509.864 375.122 507.752C373.522 505.576 371.506 503.4 369.074 501.224L356.018 489.704C353.458 487.464 351.57 485.032 350.354 482.408C349.138 479.72 348.53 476.424 348.53 472.52C348.53 466.824 350.162 462.408 353.426 459.272C356.69 456.136 361.138 454.568 366.77 454.568C369.842 454.568 372.53 454.984 374.834 455.816C377.202 456.584 379.154 457.8 380.69 459.464C382.29 461.128 383.538 463.24 384.434 465.8C385.394 468.296 386.034 471.24 386.354 474.632L377.138 477.128C376.946 474.568 376.562 472.232 375.986 470.12C375.41 467.944 374.386 466.216 372.914 464.936C371.506 463.592 369.458 462.92 366.77 462.92C364.082 462.92 361.97 463.656 360.434 465.128C358.962 466.536 358.226 468.648 358.226 471.464C358.226 473.832 358.61 475.784 359.378 477.32C360.21 478.856 361.522 480.424 363.314 482.024L376.466 493.544C379.41 496.104 382.002 499.176 384.242 502.76C386.482 506.28 387.602 510.472 387.602 515.336C387.602 519.176 386.802 522.504 385.202 525.32C383.602 528.072 381.394 530.184 378.578 531.656C375.826 533.128 372.626 533.864 368.978 533.864Z" fill="white"/>
<defs>
<linearGradient id="paint0_linear_1395_333" x1="0" y1="0" x2="0" y2="600" gradientUnits="userSpaceOnUse">
<stop stop-color="#6A2C70"/>
<stop offset="1" stop-color="#FF007A"/>
</linearGradient>
</defs>
</svg>
