<?xml version="1.0" encoding="UTF-8" standalone="no"?>
<!-- Created with Inkscape (http://www.inkscape.org/) -->

<svg

  preserveAspectRatio="none"

   width="506mm"
   height="44.463852mm"
   viewBox="0 0 506 44.463852"
   version="1.1"
   id="svg5"
   xml:space="preserve"
   inkscape:version="1.2.2 (732a01da63, 2022-12-09)"
   sodipodi:docname="footer.svg"
   xmlns:inkscape="http://www.inkscape.org/namespaces/inkscape"
   xmlns:sodipodi="http://sodipodi.sourceforge.net/DTD/sodipodi-0.dtd"
   xmlns="http://www.w3.org/2000/svg"
   xmlns:svg="http://www.w3.org/2000/svg"><sodipodi:namedview
     id="namedview7"
     pagecolor="#ffffff"
     bordercolor="#000000"
     borderopacity="0.25"
     inkscape:showpageshadow="2"
     inkscape:pageopacity="0.0"
     inkscape:pagecheckerboard="0"
     inkscape:deskcolor="#d1d1d1"
     inkscape:document-units="mm"
     showgrid="false"
     inkscape:zoom="0.95321268"
     inkscape:cx="2093.9713"
     inkscape:cy="243.38745"
     inkscape:window-width="1366"
     inkscape:window-height="715"
     inkscape:window-x="-8"
     inkscape:window-y="-8"
     inkscape:window-maximized="1"
     inkscape:current-layer="layer1" /><defs
     id="defs2" /><g
     inkscape:label="Layer 1"
     inkscape:groupmode="layer"
     id="layer1"
     transform="translate(200.15141,-64.594352)"><g
       id="g183"
       transform="translate(-0.78508678)"><g
         style="fill:none"
         id="g18"
         transform="matrix(0.26458333,0,0,0.26458333,-200.1514,64.594351)"><path
           d="M 0,3.11574 40.1067,7.75655 C 80.4267,12.2719 160.64,21.5535 240.64,25.6926 c 80,4.1391 159.787,3.3865 239.787,-4.3899 80,-7.7765 160.213,-22.32605 240.213,-20.695503 80,1.630553 159.787,19.692003 239.787,25.963403 80.003,6.2713 160.213,0.7526 240.213,-4.3899 80,-5.268 159.79,-10.2851 239.79,-10.2851 80,0 160.21,5.0171 240.21,9.6579 C 1757,0.607206 1880.32,-1.39963 1920,0.607197 V 34.4725 116 h -39.89 c -39.68,0 -119.47,0 -199.47,0 -80,0 -160.21,0 -240.21,0 -80,0 -159.79,0 -239.79,0 -80,0 -160.21,0 -240.213,0 -80,0 -159.787,0 -239.787,0 -80,0 -160.213,0 -240.213,0 -80,0 -159.787,0 -239.787,0 -80,0 -160.2133,0 -200.5333,0 H 0 Z"
           fill="#971aa3"
           id="path9" /></g><g
         style="fill:none"
         id="g29"
         transform="matrix(0.26458333,0,0,0.26458333,-200.1514,72.604059)"><path
           d="M 0,3.11574 40.1067,7.75655 C 80.4267,12.2719 160.64,21.5535 240.64,25.6926 c 80,4.1391 159.787,3.3865 239.787,-4.39 80,-7.7764 160.213,-22.32595 240.213,-20.695404 80,1.630554 159.787,19.692004 239.787,25.963404 80.003,6.2713 160.213,0.7526 240.213,-4.3899 80,-5.268 159.79,-10.2851 239.79,-10.2851 80,0 160.21,5.0171 240.21,9.6579 C 1757,0.607206 1880.32,-1.39964 1920,0.607196 V 34.4725 116 h -39.89 c -39.68,0 -119.47,0 -199.47,0 -80,0 -160.21,0 -240.21,0 -80,0 -159.79,0 -239.79,0 -80,0 -160.21,0 -240.213,0 -80,0 -159.787,0 -239.787,0 -80,0 -160.213,0 -240.213,0 -80,0 -159.787,0 -239.787,0 -80,0 -160.2133,0 -200.5333,0 H 0 Z"
           fill="#7f2d87"
           id="path20" /></g><g
         style="fill:none"
         id="g40"
         transform="matrix(0.26458333,0,0,0.26458333,-199.88683,79.689454)"><path
           d="M -1,0.00577632 H 39.1067 C 79.4267,3.8521 159.64,42.682 239.64,46.8947 319.64,51.1073 399.427,51.84 479.427,46.3452 559.427,40.8505 639.64,0.555251 719.64,0.00577632 799.64,-0.543698 879.427,38.2863 959.427,40.4841 1039.43,42.682 1144,13.0104 1224,12.0947 c 80,-0.9158 135.43,26.9242 215.43,22.5284 80,-4.2127 160.21,-17.0337 240.21,-22.5284 80,-5.49479 159.79,-3.66321 199.47,-2.74742 L 1919,10.2631 V 111 h -39.89 c -39.68,0 -119.47,0 -199.47,0 -80,0 -160.21,0 -240.21,0 -80,0 -159.79,0 -239.79,0 -80,0 -160.21,0 -240.213,0 -80,0 -159.787,0 -239.787,0 -80,0 -160.213,0 -240.213,0 -80,0 -159.787,0 -239.787,0 -80,0 -160.2133,0 -200.5333,0 H -1 Z"
           fill="#6a2c70"
           id="path31" /></g></g></g></svg>
